<svg xmlns="http://www.w3.org/2000/svg" width="36" height="23" viewBox="0 0 36 23">
  <g id="trust" transform="translate(0 -30.505)">
    <g id="Grupo_805" data-name="Grupo 805" transform="translate(0 30.505)">
      <g id="Grupo_804" data-name="Grupo 804" transform="translate(0 0)">
        <path id="Trazado_830" data-name="Trazado 830" d="M31.395,178.384h-.567a3.661,3.661,0,0,0,.739-2.212v-1.009a3.582,3.582,0,1,0-7.164,0v.784l-5.29-5.378A1.047,1.047,0,0,0,18,170.317a1.048,1.048,0,0,0-1.113.252l-5.29,5.378v-.784a3.582,3.582,0,1,0-7.164,0v1.009a3.661,3.661,0,0,0,.739,2.212H4.605A4.65,4.65,0,0,0,0,183.066v9.472a.709.709,0,0,0,.7.715H3.674a.692.692,0,0,0,.2-.03.692.692,0,0,0,.2.03h7.875a.709.709,0,0,0,.7-.715v-2.43a.7.7,0,1,0-1.406,0v1.716H4.781v-8.145a.7.7,0,1,0-1.406,0v8.145H1.406v-8.757a3.23,3.23,0,0,1,3.2-3.253H9.492a.7.7,0,0,0,.5-.208h0l7.3-7.425a7.962,7.962,0,0,1-1.321,4.151l-4.6,6.948a.724.724,0,0,0-.12.4v.783a.7.7,0,1,0,1.406,0V183.9l4.482-6.767A9.408,9.408,0,0,0,18,175.5a9.4,9.4,0,0,0,.862,1.63l4.482,6.767v8.642a.709.709,0,0,0,.7.715h7.875a.692.692,0,0,0,.2-.03.692.692,0,0,0,.2.03H35.3a.709.709,0,0,0,.7-.715v-9.472A4.65,4.65,0,0,0,31.395,178.384Zm-21.2-2.212a2.176,2.176,0,1,1-4.351,0v-1.009a2.176,2.176,0,1,1,4.351,0Zm15.617-1.009a2.176,2.176,0,1,1,4.351,0v1.009a2.176,2.176,0,1,1-4.351,0Zm8.785,16.66H32.625v-5.29a.7.7,0,1,0-1.406,0v5.29H24.75v-8.145a.723.723,0,0,0-.12-.4l-4.6-6.948a7.962,7.962,0,0,1-1.321-4.151l7.3,7.425.026.024a.693.693,0,0,0,.471.185h4.887a3.23,3.23,0,0,1,3.2,3.253Z" transform="translate(0 -170.252)" fill="#5f5f5f"/>
      </g>
    </g>
    <g id="Grupo_807" data-name="Grupo 807" transform="translate(31.246 43.233)">
      <g id="Grupo_806" data-name="Grupo 806">
        <path id="Trazado_831" data-name="Trazado 831" d="M445.193,348.255a.7.7,0,1,0,.2.494A.7.7,0,0,0,445.193,348.255Z" transform="translate(-444 -348.05)" fill="#5f5f5f"/>
      </g>
    </g>
    <g id="Grupo_809" data-name="Grupo 809" transform="translate(11.253 47.024)">
      <g id="Grupo_808" data-name="Grupo 808">
        <path id="Trazado_832" data-name="Trazado 832" d="M161.193,401.2a.7.7,0,1,0,.2.494A.7.7,0,0,0,161.193,401.2Z" transform="translate(-160 -401)" fill="#5f5f5f"/>
      </g>
    </g>
  </g>
</svg>
