<svg xmlns="http://www.w3.org/2000/svg" width="23" height="23" viewBox="0 0 23 23">
  <path id="message" d="M11.5,0A11.5,11.5,0,0,0,1.525,17.225l-1.482,4.6a.9.9,0,0,0,1.131,1.131l4.6-1.482A11.5,11.5,0,1,0,11.5,0Zm0,21.2a9.675,9.675,0,0,1-5.136-1.47.9.9,0,0,0-.752-.093l-3.322,1.07,1.07-3.322a.9.9,0,0,0-.094-.752A9.7,9.7,0,1,1,11.5,21.2Zm1.123-9.7A1.123,1.123,0,1,1,11.5,10.377,1.123,1.123,0,0,1,12.623,11.5Zm4.492,0a1.123,1.123,0,1,1-1.123-1.123A1.123,1.123,0,0,1,17.115,11.5Zm-8.984,0a1.123,1.123,0,1,1-1.123-1.123A1.123,1.123,0,0,1,8.131,11.5Zm0,0" fill="#5f5f5f"/>
</svg>
