<svg id="qr-scan" xmlns="http://www.w3.org/2000/svg" width="30" height="30" viewBox="0 0 30 30">
  <path id="Trazado_885" data-name="Trazado 885" d="M3.476,7.946H.5a.5.5,0,0,1-.5-.5V.5A.5.5,0,0,1,.5,0H7.449a.5.5,0,0,1,.5.5v2.98a.5.5,0,0,1-.5.5H3.973V7.449A.5.5,0,0,1,3.476,7.946ZM.993,6.952H2.98V3.476a.5.5,0,0,1,.5-.5H6.952V.993H.993Z" fill="#5f5f5f"/>
  <path id="Trazado_886" data-name="Trazado 886" d="M7.449,51.946H.5a.5.5,0,0,1-.5-.5V44.5A.5.5,0,0,1,.5,44h2.98a.5.5,0,0,1,.5.5v3.476H7.449a.5.5,0,0,1,.5.5v2.98A.5.5,0,0,1,7.449,51.946ZM.993,50.952H6.952V48.966H3.476a.5.5,0,0,1-.5-.5V44.993H.993Z" transform="translate(0 -21.946)" fill="#5f5f5f"/>
  <path id="Trazado_887" data-name="Trazado 887" d="M51.449,7.946h-2.98a.5.5,0,0,1-.5-.5V3.973H44.5a.5.5,0,0,1-.5-.5V.5a.5.5,0,0,1,.5-.5h6.952a.5.5,0,0,1,.5.5V7.449A.5.5,0,0,1,51.449,7.946Zm-2.483-.993h1.986V.993H44.993V2.98h3.476a.5.5,0,0,1,.5.5Z" transform="translate(-21.946)" fill="#5f5f5f"/>
  <path id="Trazado_888" data-name="Trazado 888" d="M51.449,51.946H44.5a.5.5,0,0,1-.5-.5v-2.98a.5.5,0,0,1,.5-.5h3.476V44.5a.5.5,0,0,1,.5-.5h2.98a.5.5,0,0,1,.5.5v6.952A.5.5,0,0,1,51.449,51.946Zm-6.456-.993h5.959V44.993H48.966v3.476a.5.5,0,0,1-.5.5H44.993Z" transform="translate(-21.946 -21.946)" fill="#5f5f5f"/>
  <path id="Trazado_889" data-name="Trazado 889" d="M29.586,30.088H13.5a.5.5,0,0,1-.5-.5V13.5a.5.5,0,0,1,.5-.5H29.586a.5.5,0,0,1,.5.5V29.586A.5.5,0,0,1,29.586,30.088Zm-15.58-1.005H29.083V14.005H14.005Z" transform="translate(-6.544 -6.544)" fill="#5f5f5f"/>
  <path id="Trazado_890" data-name="Trazado 890" d="M29.5,29.993H.5A.5.5,0,1,1,.5,29h29a.5.5,0,1,1,0,.993Z" transform="translate(0 -14.497)" fill="#5f5f5f"/>
</svg>
