<svg xmlns="http://www.w3.org/2000/svg" width="31.2" height="31.2" viewBox="0 0 31.2 31.2">
  <g id="question" transform="translate(0.1 0.1)">
    <g id="Grupo_811" data-name="Grupo 811" transform="translate(0 10.865)">
      <g id="Grupo_810" data-name="Grupo 810">
        <path id="Trazado_835" data-name="Trazado 835" d="M20.611,182.638a.6.6,0,0,0-.6.6v4.11a2.982,2.982,0,0,1-2.979,2.979H10.605a.6.6,0,0,0-.6.6V192.1L8.587,190.68a.6.6,0,0,0-.546-.358H4.17a2.982,2.982,0,0,1-2.979-2.979V178.17a2.982,2.982,0,0,1,2.979-2.979h6.017a.6.6,0,0,0,0-1.191H4.17A4.175,4.175,0,0,0,0,178.17v9.174a4.175,4.175,0,0,0,4.17,4.17H7.736l2.447,2.447a.6.6,0,0,0,1.017-.421v-2.026h5.836a4.175,4.175,0,0,0,4.17-4.17v-4.11A.6.6,0,0,0,20.611,182.638Z" transform="translate(0 -174)" fill="#5f5f5f" stroke="#5f5f5f" stroke-width="0.2"/>
      </g>
    </g>
    <g id="Grupo_813" data-name="Grupo 813" transform="translate(12.176)">
      <g id="Grupo_812" data-name="Grupo 812">
        <path id="Trazado_836" data-name="Trazado 836" d="M206.166,0h-1.508a8.658,8.658,0,0,0,0,17.317h1.508a8.675,8.675,0,0,0,2.2-.282l2.227,2.226a.6.6,0,0,0,1.017-.421V15.393a8.741,8.741,0,0,0,2.276-2.806,8.565,8.565,0,0,0,.941-3.929A8.668,8.668,0,0,0,206.166,0Zm4.487,14.627a.6.6,0,0,0-.237.476v2.3l-1.458-1.457a.6.6,0,0,0-.6-.148,7.469,7.469,0,0,1-2.2.328h-1.508a7.467,7.467,0,1,1,0-14.934h1.508a7.467,7.467,0,0,1,4.487,13.435Z" transform="translate(-196)" fill="#5f5f5f" stroke="#5f5f5f" stroke-width="0.2"/>
      </g>
    </g>
    <g id="Grupo_815" data-name="Grupo 815" transform="translate(19.101 4.174)">
      <g id="Grupo_814" data-name="Grupo 814">
        <path id="Trazado_837" data-name="Trazado 837" d="M319.5,72.408a2.528,2.528,0,0,0-2.338-2.338,2.5,2.5,0,0,0-1.9.672,2.531,2.531,0,0,0-.8,1.844.6.6,0,0,0,1.191,0,1.331,1.331,0,0,1,1.426-1.327,1.331,1.331,0,0,1,.2,2.626,1.127,1.127,0,0,0-.888,1.1V76.42a.6.6,0,1,0,1.191,0V75.036A2.509,2.509,0,0,0,319.5,72.408Z" transform="translate(-314.462 -70.063)" fill="#5f5f5f" stroke="#5f5f5f" stroke-width="0.2"/>
      </g>
    </g>
    <g id="Grupo_817" data-name="Grupo 817" transform="translate(21.011 12.501)">
      <g id="Grupo_816" data-name="Grupo 816">
        <path id="Trazado_838" data-name="Trazado 838" d="M347.817,206.5a.6.6,0,1,0,.175.421A.6.6,0,0,0,347.817,206.5Z" transform="translate(-346.8 -206.33)" fill="#5f5f5f" stroke="#5f5f5f" stroke-width="0.2"/>
      </g>
    </g>
    <g id="Grupo_819" data-name="Grupo 819" transform="translate(3.217 18.782)">
      <g id="Grupo_818" data-name="Grupo 818">
        <path id="Trazado_839" data-name="Trazado 839" d="M67.165,310H54.6a.6.6,0,0,0,0,1.191H67.165a.6.6,0,0,0,0-1.191Z" transform="translate(-54 -310)" fill="#5f5f5f" stroke="#5f5f5f" stroke-width="0.2"/>
      </g>
    </g>
    <g id="Grupo_821" data-name="Grupo 821" transform="translate(16.055 22.175)">
      <g id="Grupo_820" data-name="Grupo 820">
        <path id="Trazado_840" data-name="Trazado 840" d="M266.017,366.175a.6.6,0,1,0,.175.421A.6.6,0,0,0,266.017,366.175Z" transform="translate(-265 -366)" fill="#5f5f5f" stroke="#5f5f5f" stroke-width="0.2"/>
      </g>
    </g>
    <g id="Grupo_823" data-name="Grupo 823" transform="translate(3.217 22.175)">
      <g id="Grupo_822" data-name="Grupo 822">
        <path id="Trazado_841" data-name="Trazado 841" d="M64.822,366H54.6a.6.6,0,0,0,0,1.191H64.822a.6.6,0,1,0,0-1.191Z" transform="translate(-54 -366)" fill="#5f5f5f" stroke="#5f5f5f" stroke-width="0.2"/>
      </g>
    </g>
    <g id="Grupo_825" data-name="Grupo 825" transform="translate(3.217 15.389)">
      <g id="Grupo_824" data-name="Grupo 824">
        <path id="Trazado_842" data-name="Trazado 842" d="M63.293,254H54.6a.6.6,0,1,0,0,1.191h8.7a.6.6,0,0,0,0-1.191Z" transform="translate(-54 -254)" fill="#5f5f5f" stroke="#5f5f5f" stroke-width="0.2"/>
      </g>
    </g>
  </g>
</svg>
