<svg xmlns="http://www.w3.org/2000/svg" width="31" height="13" viewBox="0 0 31 13">
  <g id="reservation" transform="translate(0 -149.333)">
    <g id="Grupo_797" data-name="Grupo 797" transform="translate(0 149.333)">
      <g id="Grupo_796" data-name="Grupo 796">
        <path id="Trazado_824" data-name="Trazado 824" d="M30.917,158.684l-2.138-7.421a2.589,2.589,0,0,0-2.5-1.93H4.521a.644.644,0,0,0-.5.243c-.025.031-3.751,6.9-3.751,6.9A2.228,2.228,0,0,0,0,157.529a2.2,2.2,0,0,0,2.19,2.2H6.012l.124.564a2.572,2.572,0,0,0,2.522,2.036H8.68l19.962-.649A2.369,2.369,0,0,0,31,159.309,2.409,2.409,0,0,0,30.917,158.684ZM2.19,158.433a.9.9,0,0,1-.9-.9A.921.921,0,0,1,1.4,157.1l2.863-5.282,1.462,6.619Zm26.43,1.951-19.97.649A1.285,1.285,0,0,1,7.4,160.015l-2.073-9.382H26.282a1.3,1.3,0,0,1,1.251.978l2.139,7.424a1.029,1.029,0,0,1,.035.274A1.078,1.078,0,0,1,28.62,160.384Z" transform="translate(0 -149.333)" fill="#5f5f5f"/>
        <path id="Trazado_825" data-name="Trazado 825" d="M186.055,225.978l-13.385.419a.675.675,0,0,0,.021,1.349h.021l13.385-.419a.674.674,0,0,0,.654-.7A.653.653,0,0,0,186.055,225.978Z" transform="translate(-161.993 -221.332)" fill="#5f5f5f"/>
        <path id="Trazado_826" data-name="Trazado 826" d="M213.565,270.321l-9.395.293a.675.675,0,0,0,.021,1.35h.021l9.395-.293a.675.675,0,0,0,.654-.7A.661.661,0,0,0,213.565,270.321Z" transform="translate(-191.47 -262.986)" fill="#5f5f5f"/>
      </g>
    </g>
  </g>
</svg>
