<svg xmlns="http://www.w3.org/2000/svg" width="17.501" height="21.5" viewBox="0 0 17.501 21.5">
  <g id="group" transform="translate(-5.095 -98.517)">
    <g id="Grupo_643" data-name="Grupo 643" transform="translate(5.345 98.767)">
      <path id="Trazado_617" data-name="Trazado 617" d="M19.339,102.8A8.4,8.4,0,0,0,16.3,101.13a4.754,4.754,0,1,0-4.916,0,8.467,8.467,0,0,0-3.011,1.649,9.2,9.2,0,0,0-2.952,5.438,5.786,5.786,0,0,0-.072,1.106v.445A3.469,3.469,0,0,0,8.8,113.25H18.884a3.469,3.469,0,0,0,3.46-3.481v-.445a8.537,8.537,0,0,0-.938-3.67A9.694,9.694,0,0,0,19.339,102.8Zm-9.228-5.765a3.713,3.713,0,1,1,3.928,3.73H13.61A3.732,3.732,0,0,1,10.111,97.034ZM21.29,109.769a2.431,2.431,0,0,1-2.419,2.434H8.791a2.431,2.431,0,0,1-2.419-2.434v-.445a7.5,7.5,0,0,1,7.238-7.506c.072.007.15.007.221.007s.15,0,.221-.007a7.5,7.5,0,0,1,7.238,7.506Z" transform="translate(-5.345 -92.25)" fill="#5f5f5f" stroke="#707070" stroke-width="0.5"/>
    </g>
  </g>
</svg>
